<?xml version="1.0"?><svg width="1600" height="1980" xmlns="http://www.w3.org/2000/svg">
 <title>Shoe Print</title>
 <metadata id="metadata7">image/svg+xmlShoe PrintTavin12. Sep. 2010</metadata>
 <g>
  <title>Layer 1</title>
  <g id="layer1" transform="rotate(113.362 859.316 1005.97)">
   <path fill="#ff7f00" d="m1291.182617,1298.175781c49.475098,-136.529785 80.965332,-257.065918 137.246338,-430.235962c889.279541,66.510132 536.135986,861.528564 -137.246338,430.235962zm-161.40332,-39.113892c-123.542114,2.511963 -242.632324,-3.49939 -359.995911,47.579834c-125.843506,58.012573 -236.294678,67.420776 -419.244873,35.711426c-332.757824,-57.673584 -540.364761,-180.34668 -586.188492,-346.374084c-54.87233,-354.206116 310.118233,-398.645874 577.136307,-407.640137c149.411774,-19.784973 789.163818,99.637146 897.743164,245.065491c-38.156006,143.134277 -75.592773,283.664917 -109.450195,425.657471l0,0z" id="path2890-7"/>
  </g>
  <rect transform="rotate(38.7002 668.164 1333.46)" width="414.376367" y="1276.630098" x="460.975701" height="113.650001" id="svg_4" stroke-opacity="0" stroke-width="5" stroke="#000000" fill="#ff7f00"/>
  <rect width="29.928563" y="1140.596312" x="491.997898" transform="rotate(32.3718 506.962 1200.01)" height="118.828089" id="svg_5" stroke-opacity="0" stroke-width="5" stroke="#000000" fill="#ff7f00"/>
  <rect width="23.255808" y="1392.667566" x="818.887133" transform="rotate(39.3997 830.515 1455.3)" height="125.265074" id="svg_7" stroke-opacity="0" stroke-width="5" stroke="#000000" fill="#ff7f00"/>
  <rect width="22.562565" y="1301.395608" x="872.692917" transform="rotate(49.6355 883.974 1419.78)" height="236.778201" id="svg_9" stroke-opacity="0" stroke-width="5" stroke="#000000" fill="#ff7f00"/>
 </g>
</svg>